<svg width="38" height="68" viewBox="0 0 38 68" fill="none" xmlns="http://www.w3.org/2000/svg">
<path fill-rule="evenodd" clip-rule="evenodd" d="M9.90833 4.1538C16.1178 0.641181 25.251 -0.758355 37.1587 0.508429L36.8413 3.4916C25.249 2.25837 16.8322 3.68383 11.3854 6.76498C6.03071 9.79404 3.44073 14.4723 3.47498 20.2161C3.50985 26.0617 6.27425 33.1456 12.0115 40.7226C16.5336 46.695 22.8535 52.9061 30.9773 58.9644C30.6189 58.232 30.2832 57.4679 29.9851 56.6822C28.6784 53.2384 27.9979 49.1197 29.6258 45.3988L32.3742 46.6012C31.2021 49.2803 31.605 52.4949 32.79 55.6179C33.965 58.7147 35.8174 61.4691 37.1429 63.0285L36.9652 63.1796C37.249 63.3684 37.5346 63.557 37.822 63.7453L36.178 66.2547C36.0344 66.1607 35.8913 66.0665 35.7486 65.9724L35.5828 66.187C34.008 64.97 30.8416 63.6743 27.6836 63.587C24.5959 63.5016 21.8201 64.5505 20.3556 67.6421L17.6444 66.3579C19.78 61.8495 23.9208 60.4818 27.7665 60.5881C27.9005 60.5918 28.0346 60.5973 28.1686 60.6045C20.3384 54.6449 14.1454 48.5106 9.61977 42.5336C3.66326 34.667 0.515173 26.9633 0.475027 20.234C0.434286 13.4027 3.60682 7.71847 9.90833 4.1538Z" fill="#48A7FF"/>
</svg>
